<svg xmlns="http://www.w3.org/2000/svg" width="100" height="100" viewBox="0 0 100 100">
  <defs>
    <pattern id="royal-pattern" patternUnits="userSpaceOnUse" width="100" height="100">
      <!-- Background -->
      <rect width="100" height="100" fill="#FFF8F0" />
      
      <!-- Ornate elements -->
      <g fill="#C1A173" opacity="0.15">
        <!-- Central floral element -->
        <path d="M50,35 C55,35 60,30 60,25 C60,20 55,15 50,15 C45,15 40,20 40,25 C40,30 45,35 50,35 Z M50,85 C55,85 60,80 60,75 C60,70 55,65 50,65 C45,65 40,70 40,75 C40,80 45,85 50,85 Z M25,50 C25,45 20,40 15,40 C10,40 5,45 5,50 C5,55 10,60 15,60 C20,60 25,55 25,50 Z M85,50 C85,45 80,40 75,40 C70,40 65,45 65,50 C65,55 70,60 75,60 C80,60 85,55 85,50 Z" />
        
        <!-- Connecting lines -->
        <path d="M50,35 L50,65 M25,50 L75,50" stroke="#C1A173" stroke-width="1" opacity="0.5" fill="none" />
        
        <!-- Corner ornaments -->
        <path d="M15,15 C20,10 25,15 20,20 C15,25 10,20 15,15 Z" />
        <path d="M85,15 C80,10 75,15 80,20 C85,25 90,20 85,15 Z" />
        <path d="M15,85 C20,90 25,85 20,80 C15,75 10,80 15,85 Z" />
        <path d="M85,85 C80,90 75,85 80,80 C85,75 90,80 85,85 Z" />
      </g>
      
      <!-- Fine grid lines -->
      <g stroke="#C1A173" stroke-width="0.5" opacity="0.1">
        <path d="M0,0 L100,100 M100,0 L0,100" />
        <path d="M50,0 L50,100 M0,50 L100,50" />
      </g>
    </pattern>
  </defs>
  
  <!-- Apply the pattern -->
  <rect width="100" height="100" fill="url(#royal-pattern)" />
</svg>
